<?xml version="1.0" encoding="UTF-8" standalone="no"?>
<!-- Created with Inkscape (http://www.inkscape.org/) -->

<svg
   width="135.46666mm"
   height="135.46664mm"
   viewBox="0 0 135.46666 135.46664"
   version="1.1"
   id="svg1"
   inkscape:export-filename="bitmap.png"
   inkscape:export-xdpi="324.51395"
   inkscape:export-ydpi="324.51395"
   inkscape:version="1.4.2 (ebf0e940, 2025-05-08)"
   sodipodi:docname="faper3-logo-inkscape.svg"
   xmlns:inkscape="http://www.inkscape.org/namespaces/inkscape"
   xmlns:sodipodi="http://sodipodi.sourceforge.net/DTD/sodipodi-0.dtd"
   xmlns="http://www.w3.org/2000/svg"
   xmlns:svg="http://www.w3.org/2000/svg">
  <sodipodi:namedview
     id="namedview1"
     pagecolor="#ffffff"
     bordercolor="#666666"
     borderopacity="1.0"
     inkscape:showpageshadow="2"
     inkscape:pageopacity="0.0"
     inkscape:pagecheckerboard="0"
     inkscape:deskcolor="#d1d1d1"
     inkscape:document-units="mm"
     inkscape:zoom="0.57068729"
     inkscape:cx="389.88077"
     inkscape:cy="649.2172"
     inkscape:window-width="1512"
     inkscape:window-height="916"
     inkscape:window-x="0"
     inkscape:window-y="38"
     inkscape:window-maximized="1"
     inkscape:current-layer="layer1">
    <inkscape:page
       x="0"
       y="1.7781937e-13"
       width="135.46666"
       height="135.46664"
       id="page2"
       margin="0"
       bleed="0" />
  </sodipodi:namedview>
  <defs
     id="defs1" />
  <g
     inkscape:label="Livello 1"
     inkscape:groupmode="layer"
     id="layer1"
     transform="translate(-38.67876,-64.443498)">
    <rect
       style="fill:none;stroke-width:1.30046"
       id="rect1"
       width="135.46666"
       height="135.46666"
       x="38.678761"
       y="64.443497"
       inkscape:export-filename="faper3-logo.png"
       inkscape:export-xdpi="324.51395"
       inkscape:export-ydpi="324.51395" />
    <g
       id="g1"
       transform="matrix(3.3803531,0,0,3.3803531,-254.16108,-148.14345)"
       style="fill:#38bdf8;fill-opacity:1;stroke-width:0.999896;stroke-dasharray:none">
      <g
         id="g28"
         transform="matrix(0.26458333,0,0,0.26458333,1.4174023,-135.29701)"
         style="fill:#38bdf8;fill-opacity:1;stroke-width:3.77913;stroke-dasharray:none">
        <path
           id="path29"
           d="m 0,0 c 2.465,1.884 4.423,4.024 5.85,6.436 2.106,3.56 3.158,7.646 3.158,12.257 0,4.914 -1.151,9.15 -3.458,12.707 -2.306,3.561 -5.615,6.293 -9.926,8.196 -4.309,1.904 -9.423,2.857 -15.339,2.857 -4.411,0 -8.422,-0.577 -12.031,-1.728 -2.563,-0.819 -4.883,-2.049 -7.092,-3.476 V 19.218 c 1.346,1.674 2.884,3.173 4.836,4.287 2.808,1.605 6.067,2.406 9.775,2.406 2.808,0 5.165,-0.701 7.068,-2.105 1.906,-1.404 2.858,-3.358 2.858,-5.866 0,-2.706 -0.852,-4.786 -2.557,-6.24 -1.704,-1.453 -4.159,-2.482 -7.369,-3.084 L -38.838,6.008 V 0.111 -10.643 -17.92 c 1.346,1.674 2.884,3.172 4.836,4.286 2.808,1.605 6.067,2.406 9.775,2.406 2.808,0 5.165,-0.7 7.068,-2.104 1.906,-1.404 2.858,-3.358 2.858,-5.866 0,-2.706 -0.852,-4.786 -2.557,-6.24 -1.704,-1.453 -4.159,-2.482 -7.369,-3.084 l -14.611,-2.608 v -16.652 l 18.671,3.019 c 6.519,1.004 11.956,2.706 16.317,5.112 4.361,2.406 7.595,5.391 9.7,8.948 2.106,3.561 3.158,7.646 3.158,12.257 0,4.914 -1.151,9.151 -3.458,12.708 C 4.099,-3.497 2.247,-1.585 0,0"
           style="fill:#38bdf8;fill-opacity:1;fill-rule:nonzero;stroke:none;stroke-width:2.83435;stroke-dasharray:none"
           transform="matrix(1.3333333,0,0,-1.3333333,461.516,820.91267)" />
      </g>
      <g
         id="g29"
         transform="matrix(0.26458333,0,0,0.26458333,1.4174023,-135.29701)"
         style="fill:#38bdf8;fill-opacity:1;stroke-width:3.77913;stroke-dasharray:none">
        <path
           id="path30"
           d="M 0,0 C 0.43,0.763 1.034,1.366 1.81,1.81 2.586,2.253 3.488,2.475 4.514,2.475 5.291,2.475 5.943,2.282 6.469,1.893 6.996,1.505 7.26,0.964 7.26,0.27 7.26,-0.478 7.024,-1.054 6.552,-1.456 6.081,-1.858 5.402,-2.143 4.514,-2.309 L -0.645,-3.23 v 0.713 C -0.645,-1.602 -0.43,-0.763 0,0 m 6.074,-10.546 c -0.846,-0.61 -1.824,-0.916 -2.933,-0.916 -1.165,0 -2.086,0.292 -2.766,0.874 -0.68,0.583 -1.02,1.304 -1.02,2.163 v 0.607 l 6.282,1.016 c 1.803,0.277 3.308,0.749 4.514,1.414 1.207,0.666 2.101,1.492 2.683,2.476 0.583,0.984 0.874,2.115 0.874,3.39 0,1.359 -0.318,2.532 -0.957,3.516 C 12.113,4.978 11.198,5.735 10.005,6.261 8.813,6.788 7.399,7.052 5.762,7.052 4.542,7.052 3.432,6.892 2.434,6.573 1.435,6.255 0.534,5.769 -0.27,5.117 -0.543,4.897 -0.804,4.649 -1.061,4.388 V 6.552 L -6.885,2.341 V -8.425 c 0,-1.636 0.409,-3.071 1.227,-4.305 0.818,-1.234 1.962,-2.198 3.432,-2.892 1.471,-0.693 3.162,-1.04 5.076,-1.04 1.608,0 3.093,0.25 4.451,0.749 1.359,0.499 2.524,1.206 3.495,2.122 0.971,0.915 1.678,2.011 2.122,3.286 L 7.925,-8.133 C 7.537,-9.132 6.92,-9.936 6.074,-10.546"
           style="fill:#38bdf8;fill-opacity:1;fill-rule:nonzero;stroke:none;stroke-width:2.83435;stroke-dasharray:none"
           transform="matrix(1.3333333,0,0,-1.3333333,365.02787,851.9436)" />
      </g>
      <g
         id="g30"
         transform="matrix(0.26458333,0,0,0.26458333,1.4174023,-135.29701)"
         style="fill:#38bdf8;fill-opacity:1;stroke-width:3.77913;stroke-dasharray:none">
        <path
           id="path31"
           d="m 0,0 c -0.499,-0.943 -1.193,-1.678 -2.08,-2.205 -0.888,-0.527 -1.914,-0.79 -3.079,-0.79 -1.109,0 -2.101,0.263 -2.974,0.79 -0.874,0.527 -1.554,1.262 -2.039,2.205 -0.485,0.943 -0.728,2.024 -0.728,3.245 0,1.22 0.243,2.302 0.728,3.245 0.485,0.943 1.165,1.678 2.039,2.205 0.873,0.526 1.865,0.79 2.974,0.79 1.165,0 2.191,-0.27 3.079,-0.811 C -1.193,8.133 -0.499,7.398 0,6.469 0.499,5.54 0.749,4.465 0.749,3.245 0.749,2.024 0.499,0.943 0,0 m 5.658,9.257 c -1.026,1.789 -2.413,3.21 -4.16,4.264 -1.748,1.054 -3.703,1.581 -5.866,1.581 -1.664,0 -3.141,-0.312 -4.431,-0.936 -1.005,-0.487 -1.84,-1.133 -2.517,-1.931 v 2.368 h -5.824 v -31.036 l 6.24,4.212 v 5.882 c 0.629,-0.578 1.349,-1.06 2.184,-1.42 1.317,-0.568 2.752,-0.853 4.306,-0.853 2.219,0 4.202,0.527 5.949,1.581 1.748,1.054 3.127,2.482 4.14,4.285 1.012,1.803 1.518,3.8 1.518,5.991 0,2.219 -0.513,4.223 -1.539,6.012"
           style="fill:#38bdf8;fill-opacity:1;fill-rule:nonzero;stroke:none;stroke-width:2.83435;stroke-dasharray:none"
           transform="matrix(1.3333333,0,0,-1.3333333,344.91733,863.34293)" />
      </g>
      <g
         id="g31"
         transform="matrix(0.26458333,0,0,0.26458333,1.4174023,-135.29701)"
         style="fill:#38bdf8;fill-opacity:1;stroke-width:3.77913;stroke-dasharray:none">
        <path
           id="path32"
           d="M 0,0 C -0.875,-0.517 -1.561,-1.393 -2.059,-2.623 V 0.77 h -5.825 v -22.715 l 6.241,4.211 v 8.02 c 0,1.691 0.471,3.002 1.414,3.931 0.943,0.929 2.177,1.394 3.703,1.394 H 5.429 V 1.019 H 4.098 C 2.517,1.019 1.151,0.68 0,0"
           style="fill:#38bdf8;fill-opacity:1;fill-rule:nonzero;stroke:none;stroke-width:2.83435;stroke-dasharray:none"
           transform="matrix(1.3333333,0,0,-1.3333333,395.59347,844.89907)" />
      </g>
      <g
         id="g32"
         transform="matrix(0.26458333,0,0,0.26458333,1.4174023,-135.29701)"
         style="fill:#38bdf8;fill-opacity:1;stroke-width:3.77913;stroke-dasharray:none">
        <path
           id="path33"
           d="m 0,0 v 22.301 h 8.289 v 9.21 H 0 v 0.567 c 0,1.7 0.507,2.987 1.523,3.861 1.016,0.874 2.515,1.311 4.499,1.311 0.378,0 0.744,-0.012 1.098,-0.035 0.355,-0.025 0.768,-0.083 1.24,-0.177 v 9.068 c -0.472,0.095 -1.062,0.177 -1.771,0.248 -0.709,0.071 -1.371,0.107 -1.984,0.107 -3.212,0 -5.951,-0.567 -8.218,-1.701 -2.268,-1.133 -4.003,-2.763 -5.208,-4.888 -1.204,-2.126 -1.806,-4.724 -1.806,-7.794 v -0.567 h -6.519 v -9.21 h 6.519 V -7.173 Z"
           style="fill:#38bdf8;fill-opacity:1;fill-rule:nonzero;stroke:none;stroke-width:2.83435;stroke-dasharray:none"
           transform="matrix(1.3333333,0,0,-1.3333333,344.92453,826.88813)" />
      </g>
      <g
         id="g33"
         transform="matrix(0.26458333,0,0,0.26458333,1.4174023,-135.29701)"
         style="fill:#38bdf8;fill-opacity:1;stroke-width:3.77913;stroke-dasharray:none">
        <path
           id="path34"
           d="m 0,0 c -0.733,-1.3 -1.76,-2.327 -3.082,-3.082 -1.323,-0.756 -2.858,-1.134 -4.605,-1.134 -1.323,0 -2.434,0.33 -3.33,0.992 -0.898,0.662 -1.346,1.583 -1.346,2.763 0,1.276 0.4,2.256 1.204,2.941 0.803,0.684 1.959,1.169 3.472,1.452 L 1.098,5.501 V 4.286 C 1.098,2.728 0.732,1.299 0,0 m 9.636,21.68 c -1.394,2.101 -3.342,3.743 -5.846,4.924 -2.504,1.18 -5.384,1.771 -8.643,1.771 -2.74,0 -5.268,-0.425 -7.581,-1.275 -2.315,-0.85 -4.298,-2.055 -5.952,-3.613 -1.654,-1.559 -2.858,-3.426 -3.613,-5.597 l 8.502,-4.039 c 0.661,1.701 1.711,3.07 3.153,4.109 1.441,1.039 3.106,1.559 4.995,1.559 1.984,0 3.553,-0.496 4.711,-1.488 C 0.52,17.039 1.098,15.81 1.098,14.347 V 13.314 L -9.6,11.584 c -3.071,-0.472 -5.633,-1.275 -7.687,-2.409 -2.055,-1.134 -3.578,-2.54 -4.57,-4.216 -0.992,-1.676 -1.488,-3.602 -1.488,-5.774 0,-2.314 0.542,-4.311 1.629,-5.987 1.087,-1.676 2.646,-2.964 4.677,-3.861 2.03,-0.897 4.439,-1.346 7.226,-1.346 2.079,0 3.968,0.272 5.668,0.815 1.701,0.542 3.235,1.369 4.606,2.479 0.463,0.376 0.909,0.798 1.346,1.242 v -3.686 l 9.919,7.173 v 18.333 c 0,2.787 -0.698,5.231 -2.09,7.333"
           style="fill:#38bdf8;fill-opacity:1;fill-rule:nonzero;stroke:none;stroke-width:2.83435;stroke-dasharray:none"
           transform="matrix(1.3333333,0,0,-1.3333333,387.19813,821.5732)" />
      </g>
    </g>
  </g>
</svg>
